<svg width="15" height="17" viewBox="0 0 15 17" fill="none" xmlns="http://www.w3.org/2000/svg">
<path fill-rule="evenodd" clip-rule="evenodd" d="M8.50205 9.58755C8.55568 9.51083 8.62106 9.44041 8.69791 9.37901L8.73857 9.34653C8.8154 9.28514 8.89851 9.23692 8.98516 9.20155C10.5669 7.73532 10.7713 5.27413 9.40342 3.5621C7.97064 1.76881 5.35539 1.47655 3.5621 2.90933C1.76881 4.34211 1.47655 6.95736 2.90933 8.75065C4.2772 10.4627 6.72282 10.8066 8.50205 9.58755ZM9.14437 11.5399C6.56477 12.9757 3.25086 12.3822 1.3468 9.99905C-0.775447 7.3428 -0.342554 3.46906 2.3137 1.3468C4.96995 -0.775447 8.84369 -0.342554 10.9659 2.3137C12.87 4.69682 12.7173 8.05994 10.7476 10.259L14.0192 14.3538C14.3639 14.7853 14.2936 15.4146 13.8621 15.7593L13.8215 15.7918C13.39 16.1365 12.7607 16.0662 12.416 15.6347L9.14437 11.5399Z" fill="#151213"/>
</svg>
