<svg width="93" height="63" viewBox="0 0 93 63" fill="none" xmlns="http://www.w3.org/2000/svg">
<path d="M91.6706 56.9049C87.5254 55.3961 83.126 54.7095 78.7182 54.8834C75.0349 55.1256 71.3787 54.1093 68.3488 52.001L67.8247 51.5518L67.3006 51.14C65.8093 49.1515 65.079 46.6949 65.2418 44.2146C66.417 44.183 67.5682 43.875 68.6023 43.3157C69.6364 42.7564 70.5242 41.9615 71.1939 40.9952C73.2528 37.7384 72.841 36.6902 71.4559 35.9041C70.0708 35.118 68.0868 35.9041 65.9156 37.5512C63.8774 38.8043 62.4123 40.8071 61.8352 43.129C60.6373 43.8777 60.8993 44.7761 59.8137 45.5622C59.327 43.3536 57.6425 41.0326 57.4928 39.086C58.3111 38.3693 58.9084 37.4345 59.2148 36.3908C59.926 33.8826 56.6692 35.4923 56.1826 35.7918C54.8724 36.5405 54.9472 38.4871 54.7975 39.1984C53.0755 41.7439 46.9362 48.8565 46.3747 45.1879C46.1938 44.4501 46.1938 43.6796 46.3747 42.9418C47.1234 42.3054 48.471 41.2198 49.5567 40.1716C50.6423 39.1235 52.2894 36.8774 51.8776 35.979C51.4658 35.0805 50.5674 35.118 49.2946 35.2303C46.3747 35.2303 43.904 38.9737 42.8933 42.7172C42.2569 43.2787 42.8933 42.9792 42.1446 43.5033C39.6365 45.5997 37.2781 47.8832 36.3048 45.8991C40.46 41.2572 42.7435 33.8078 38.1391 35.4174C36.2839 36.4586 34.7743 38.0202 33.7964 39.9095C32.8185 41.7988 32.4151 43.933 32.6362 46.0489C32.7003 46.493 32.8005 46.9312 32.9357 47.3591C32.6899 47.6723 32.4141 47.9606 32.1121 48.2201C31.0639 49.1934 30.1655 50.1667 30.0907 47.696C30.0907 43.9525 28.9676 40.8455 26.6841 42.006C25.9405 42.3913 25.2487 42.8693 24.6252 43.4285C26.0033 40.3936 26.9484 37.1803 27.4328 33.8826C27.4328 30.9627 26.0102 30.5509 24.5503 30.813C23.0903 31.075 20.8068 32.2355 20.8068 36.2784C20.8068 38.3373 20.8068 42.9044 20.8068 46.8724C19.1524 50.3128 16.4535 53.1427 13.0953 54.9583C12.5293 55.1981 11.9129 55.2948 11.3006 55.2399C10.6884 55.1849 10.099 54.98 9.58473 54.6433C9.07041 54.3066 8.6469 53.8484 8.35166 53.3093C8.05642 52.7701 7.89853 52.1665 7.8919 51.5518C7.29627 49.2247 7.19847 46.7982 7.60487 44.4308C8.01126 42.0634 8.91271 39.8084 10.2503 37.8133C13.2076 33.3585 13.9938 35.8667 14.5927 37.6261C15.1917 39.3855 16.2772 38.9363 17.1757 37.8881C18.0741 36.84 17.1757 35.2303 17.1757 35.2303C16.8097 34.561 16.2981 33.9826 15.6785 33.5376C15.059 33.0927 14.3474 32.7926 13.5963 32.6596C12.8452 32.5267 12.0738 32.5642 11.3391 32.7694C10.6045 32.9746 9.92532 33.3423 9.35185 33.8452C7.11206 35.4959 5.31711 37.6768 4.12799 40.1923C2.93887 42.7077 2.3928 45.479 2.53878 48.2575C2.27673 57.8408 7.70471 59.2259 10.5123 58.8141C12.6355 58.3427 14.6215 57.3883 16.3159 56.0249C18.0104 54.6615 19.3678 52.9259 20.2827 50.9528C20.492 50.5771 20.6795 50.1896 20.8443 49.7923V53.985C20.8443 54.7711 21.3684 54.6589 23.0903 54.1722C24.8123 53.6856 24.6252 52.7123 24.6252 52.7123V45.8243C25.2616 45.3002 26.0851 44.8884 26.5343 45.8243C27.0112 47.3355 27.2016 48.9225 27.0959 50.5036C27.0959 52.263 28.743 52.9368 30.4276 51.9261C31.8138 50.9091 32.995 49.6389 33.909 48.1826C34.0376 48.4185 34.2017 48.6331 34.3956 48.819C34.8261 49.1021 35.3104 49.2933 35.8182 49.3805C38.7006 49.8298 41.0216 47.0971 43.0056 44.8135C43.0056 46.2361 43.3425 48.3324 44.4655 48.9688C47.8347 50.8405 51.9524 46.0863 55.097 40.9952C55.5087 42.3054 56.4446 44.7387 56.7067 45.4499C56.8193 46.2446 56.8193 47.0511 56.7067 47.8457C56.7067 47.8457 53.7493 47.8457 53.2626 49.2682C52.776 50.6908 55.4713 52.3379 57.3805 51.3646H57.6051C59.2522 50.541 59.4019 50.0918 59.7014 49.0811C60.7121 48.1452 60.4501 45.712 61.6106 44.9633C61.5868 47.2452 62.168 49.4927 63.2951 51.4769C65.6785 54.2201 68.9782 56.003 72.5789 56.4931C81.2637 58.5146 81.7879 57.5787 85.3067 58.8889H85.5313C87.8897 59.6376 89.2748 60.6858 88.9004 62.2206C88.5261 63.7554 91.5583 62.7073 91.8578 61.7714C92.1688 61.035 92.3462 60.2491 92.3819 59.4505C92.6439 58.6643 93.0557 57.7285 91.6706 56.9049ZM68.0868 38.4496C69.1724 37.8507 69.9585 37.7384 69.3595 38.8989C68.326 39.9911 67.0408 40.8137 65.6161 41.2947C66.2656 40.2082 67.102 39.245 68.0868 38.4496ZM48.5833 37.5138C49.5941 37.0271 49.2198 37.5138 49.2198 37.5138L46.8614 39.4978C47.2756 38.6901 47.8953 38.0058 48.6582 37.5138H48.5833ZM24.3257 33.9575C24.9621 33.0591 25.1493 34.5939 25.1493 35.9041C24.8926 37.4642 24.4787 38.9943 23.9139 40.4711C23.7831 38.2879 23.9468 36.097 24.4006 33.9575H24.3257ZM36.5668 40.7706C36.8509 39.8258 37.3806 38.9732 38.1017 38.2999C37.766 39.8618 37.1164 41.3391 36.1925 42.6423C36.0053 43.6905 36.6417 40.808 36.6417 40.7706H36.5668Z" fill="#262424"/>
<path d="M3.84392 14.7909C3.45775 13.4176 3.50993 11.9581 3.99311 10.6159C4.47629 9.27377 5.36637 8.11592 6.53921 7.30393C5.75895 9.72463 5.34262 12.2478 5.30386 14.7909C5.25746 17.1398 5.34497 19.4896 5.56593 21.8286C5.56593 21.8286 6.01514 27.9304 6.7264 31.599C6.7264 31.861 6.7264 32.1231 6.7264 32.3851C7.67387 31.8613 8.44302 31.066 8.93503 30.1016C10.2548 26.6697 10.6297 22.9466 10.0207 19.3204V18.9461C10.1422 18.9861 10.2734 18.9861 10.395 18.9461C11.1811 18.6841 12.1918 17.5985 13.0903 18.5343C13.9887 19.4702 14.3256 20.3312 14.4753 22.9142C14.6251 25.4972 14.4753 27.7807 15.823 28.3048C19.1547 29.7273 22.6735 24.5613 22.6735 24.5613C22.799 24.926 22.9963 25.2619 23.2539 25.549C23.5115 25.836 23.8241 26.0685 24.1732 26.2326C24.5223 26.3967 24.9008 26.489 25.2862 26.5041C25.6716 26.5193 26.0561 26.4569 26.417 26.3207C26.7593 26.2302 27.087 26.0915 27.3903 25.9089C30.7594 26.3582 33.8665 23.6254 36.6741 20.2189C36.3746 22.0532 35.6259 24.9731 37.872 25.572C38.9983 25.6408 40.1088 25.2796 40.979 24.5613C42.2144 23.4757 42.9257 22.4275 44.1236 21.1548C43.899 23.1762 44.1236 24.8982 43.9364 26.9571L42.7011 28.1176C41.2935 29.6186 40.4131 31.5371 40.193 33.583C40.193 33.583 40.193 34.1071 40.4924 34.2194C40.7919 34.3317 40.8668 34.2194 40.9042 33.8825C41.0148 32.9657 41.294 32.0773 41.7278 31.2621C42.2507 30.2289 42.9617 29.3021 43.8241 28.5294C43.8241 29.4652 43.5995 30.8503 43.4497 32.2728C43.1877 34.7809 41.7278 35.2676 41.7278 35.2676C41.7278 35.2676 41.1288 35.6045 41.0539 36.0537C40.9791 36.5029 41.054 36.765 41.7278 36.8024C42.4672 36.8988 43.2186 36.772 43.8855 36.4386C44.5525 36.1051 45.1047 35.58 45.4712 34.9307C46.793 33.0848 47.4165 30.8295 47.2306 28.5668C47.2306 27.7432 47.2306 26.9197 47.2306 26.0587L49.4393 23.9624C50.1506 25.4597 53.1827 25.8715 55.3165 24.8982C56.1843 24.6088 56.9337 24.0435 57.4503 23.2885C57.5194 23.7529 57.7174 24.1885 58.0218 24.5458C58.3262 24.9032 58.7248 25.1679 59.1723 25.31C60.3288 25.5006 61.514 25.417 62.6324 25.0659C63.7507 24.7148 64.771 24.106 65.611 23.2885C65.5727 23.7869 65.5727 24.2875 65.611 24.7859C65.6448 25.4463 65.8192 26.0918 66.1226 26.6793C66.426 27.2668 66.8515 27.7827 67.3705 28.1925C69.2048 29.615 72.0872 28.7165 74.4456 27.5186C75.353 27.0393 76.2283 26.5016 77.066 25.9089C77.665 25.2726 77.066 24.8982 76.5045 24.5613C76.3212 24.4597 76.1151 24.4064 75.9055 24.4064C75.696 24.4064 75.4899 24.4597 75.3066 24.5613C74.8199 25.0105 74.2959 25.4597 73.6595 25.9464L72.8359 26.5079C71.2263 27.1817 70.0658 26.8074 69.654 25.1228C69.2864 23.0552 69.2864 20.9389 69.654 18.8712C72.5906 15.0775 75.1013 10.9725 77.1409 6.63011C78.0019 4.87068 79.4244 -0.145546 76.5045 0.00419296C75.6005 -0.0337944 74.7044 0.186972 73.9215 0.640575C72.1621 1.53901 70.7022 3.56049 69.2048 7.64086C68.0982 10.5276 67.2097 13.4932 66.5469 16.5128C66.201 17.9421 65.9509 19.3928 65.7982 20.8553C64.1885 22.7644 62.4291 24.1495 61.5307 22.6896C61.2454 22.376 61.0442 21.9952 60.946 21.5827C60.8478 21.1703 60.8558 20.7397 60.9692 20.3312C61.3896 17.9518 62.2667 15.6763 63.5521 13.6304C65.0869 11.4966 65.5736 11.1971 65.087 10.8602C64.5173 10.4701 63.8265 10.2974 63.1403 10.3736C62.3168 10.3736 62.242 10.3736 61.7927 10.9351C61.3029 10.5087 60.7289 10.1899 60.1081 9.99923C58.5101 9.86035 56.9051 10.1726 55.4757 10.9006C54.0463 11.6285 52.8498 12.7429 52.0223 14.117C50.3201 16.5138 49.2747 19.3144 48.9901 22.2403C48.6906 22.6147 47.7173 23.4383 47.4178 23.8126C47.6424 20.8927 47.9045 18.4595 47.9045 18.4595L48.6906 15.9139C49.7014 12.6571 50.8618 10.3361 49.8136 10.0741H49.327C49.327 10.0741 48.7655 10.0741 48.1291 10.0741H47.8671C47.1184 10.3361 46.3322 10.7479 46.2573 11.0474C45.7333 12.8817 44.5728 15.315 44.2733 17.1118C43.6194 18.4814 42.7611 19.7437 41.7278 20.8553C40.0058 22.0532 40.6047 19.5076 40.9416 18.0102C41.2785 16.5128 42.8508 11.8335 43.1503 10.8977C43.4497 9.96179 42.8134 10.3736 42.8134 10.3736C41.6223 10.2078 40.4101 10.4449 39.3694 11.0474C37.5725 13.5929 35.8505 18.5343 33.9414 21.1548C33.1549 22.2557 32.0415 23.0808 30.7594 23.5131C32.5274 21.863 33.8202 19.7687 34.5029 17.4487C34.9714 16.5938 35.2171 15.6347 35.2171 14.6598C35.2171 13.685 34.9714 12.7258 34.5029 11.871L34.2783 11.4966L34.0162 11.2346C32.0696 9.40028 27.7647 10.8228 25.3314 14.1545C24.0653 15.766 23.2281 17.6721 22.8981 19.6948C22.7109 20.1814 22.5612 20.6307 22.4115 21.0799C21.2885 22.7644 21.7751 22.5773 20.39 23.9624C19.4167 24.449 19.1173 24.187 18.9675 22.727C18.8178 21.2671 19.1547 17.3364 17.9194 15.839C16.684 14.3416 14.6251 15.839 14.6251 15.839C15.2615 15.0529 15.8979 14.3042 16.4968 13.4432C18.5183 10.673 21.7377 4.87067 17.3204 2.8492C15.5302 2.1307 13.5471 2.05138 11.7052 2.6246C11.4345 2.50268 11.1411 2.43965 10.8442 2.43965C10.5474 2.43965 10.2539 2.50268 9.98319 2.6246C9.48441 2.72528 9.01141 2.9266 8.59304 3.21623C8.17468 3.50587 7.81977 3.87776 7.54996 4.30918C2.7209 7.07934 -1.17233 12.0956 0.325052 16.2134C0.998875 16.5503 4.10596 15.4272 3.84392 14.7909ZM75.5687 3.29843C75.8681 2.84921 76.0178 2.77435 76.1301 2.81179C76.1301 3.56048 75.6809 4.45891 75.4938 5.2076C74.6449 8.09215 73.3161 10.8131 71.5631 13.2561C72.5947 9.82266 73.9354 6.48981 75.5687 3.29843ZM57.4128 13.8175C59.4343 12.2453 59.921 12.5074 60.3327 12.8443C60.0537 13.341 59.8038 13.8534 59.5841 14.3791C58.897 15.9346 58.3581 17.5515 57.9744 19.2081C57.7498 19.4327 57.7498 19.9568 57.0011 20.7055C56.2524 21.4542 55.3165 22.3526 54.7175 21.4542C54.1186 20.5558 55.2791 15.4272 57.338 13.8175H57.4128ZM28.4385 17.561C28.5455 17.0937 28.7089 16.6412 28.9251 16.2134C30.1604 13.7801 33.0055 11.9084 32.6686 13.8175C32.5113 15.6408 31.9486 17.4058 31.0215 18.9835C30.3619 20.3682 29.4763 21.6333 28.401 22.727C27.5775 21.7537 27.8021 19.9194 28.3636 17.5236L28.4385 17.561ZM11.9298 4.75838C12.3076 4.67751 12.7001 4.69717 13.0679 4.81541C13.4358 4.93365 13.7662 5.14633 14.0261 5.4322C14.8285 6.51537 15.2616 7.82768 15.2616 9.17566C15.2616 10.5236 14.8285 11.836 14.0261 12.9191C12.1918 15.6519 10.2827 17.0744 10.2827 17.7482C10.148 13.3587 10.7039 8.97533 11.9298 4.75838Z" fill="#262424"/>
</svg>
