<svg width="70" height="48" viewBox="0 0 70 48" fill="none" xmlns="http://www.w3.org/2000/svg">
    <path d="M69.2604 42.9937C66.1285 41.8537 62.8046 41.335 59.4743 41.4664C56.6915 41.6494 53.9291 40.8815 51.6399 39.2886L51.2439 38.9492L50.8479 38.6381C49.7212 37.1357 49.1694 35.2796 49.2924 33.4057C50.1803 33.3818 51.0501 33.1491 51.8314 32.7265C52.6127 32.304 53.2834 31.7033 53.7894 30.9733C55.345 28.5126 55.0338 27.7207 53.9874 27.1268C52.9409 26.5328 51.4419 27.1268 49.8014 28.3712C48.2616 29.318 47.1546 30.8312 46.7186 32.5854C45.8135 33.1511 46.0115 33.8299 45.1913 34.4239C44.8236 32.7551 43.5508 31.0016 43.4377 29.5308C44.056 28.9894 44.5073 28.283 44.7388 27.4945C45.2761 25.5995 42.8155 26.8157 42.4478 27.0419C41.4579 27.6076 41.5145 29.0783 41.4013 29.6157C40.1003 31.539 35.4618 36.9128 35.0376 34.141C34.9009 33.5836 34.9009 33.0014 35.0376 32.444C35.6032 31.9632 36.6215 31.143 37.4417 30.3511C38.2619 29.5591 39.5063 27.8621 39.1952 27.1833C38.8841 26.5045 38.2053 26.5328 37.2437 26.6177C35.0376 26.6177 33.1709 29.446 32.4073 32.2743C31.9264 32.6986 32.4073 32.4723 31.8416 32.8683C29.9466 34.4521 28.1647 36.1774 27.4294 34.6784C30.5688 31.1713 32.2941 25.5429 28.8153 26.7591C27.4136 27.5458 26.273 28.7256 25.5342 30.153C24.7953 31.5804 24.4906 33.1929 24.6576 34.7915C24.7061 35.1271 24.7817 35.4582 24.8839 35.7815C24.6982 36.0181 24.4898 36.2359 24.2617 36.432C23.4697 37.1673 22.7909 37.9027 22.7344 36.036C22.7344 33.2077 21.8859 30.8602 20.1606 31.737C19.5988 32.0281 19.0761 32.3892 18.605 32.8117C19.6462 30.5188 20.3603 28.091 20.7262 25.5995C20.7262 23.3934 19.6515 23.0823 18.5484 23.2802C17.4454 23.4782 15.7201 24.355 15.7201 27.4096C15.7201 28.9652 15.7201 32.4157 15.7201 35.4138C14.4701 38.0131 12.431 40.1512 9.89374 41.523C9.46608 41.7041 9.00039 41.7772 8.5378 41.7357C8.0752 41.6942 7.62995 41.5394 7.24137 41.285C6.85278 41.0306 6.5328 40.6844 6.30974 40.277C6.08668 39.8696 5.96738 39.4136 5.96237 38.9492C5.51235 37.191 5.43846 35.3577 5.74551 33.569C6.05255 31.7804 6.73363 30.0766 7.74423 28.5692C9.97861 25.2035 10.5726 27.0985 11.0251 28.4278C11.4776 29.7571 12.2978 29.4177 12.9766 28.6258C13.6554 27.8338 12.9766 26.6177 12.9766 26.6177C12.7001 26.112 12.3136 25.675 11.8455 25.3388C11.3774 25.0026 10.8397 24.7759 10.2722 24.6755C9.70475 24.575 9.12194 24.6033 8.56689 24.7584C8.01183 24.9134 7.49869 25.1912 7.06542 25.5712C5.37317 26.8184 4.01702 28.4661 3.11859 30.3666C2.22017 32.2672 1.80759 34.361 1.91788 36.4603C1.7199 43.7008 5.82094 44.7473 7.94219 44.4361C9.54633 44.08 11.0468 43.3589 12.3271 42.3288C13.6073 41.2987 14.6329 39.9874 15.3241 38.4967C15.4822 38.2128 15.6239 37.92 15.7484 37.6199V40.7876C15.7484 41.3815 16.1443 41.2967 17.4454 40.929C18.7464 40.5613 18.605 39.826 18.605 39.826V34.6218C19.0858 34.2259 19.708 33.9148 20.0474 34.6218C20.4077 35.7636 20.5516 36.9626 20.4717 38.1572C20.4717 39.4866 21.7162 39.9957 22.9889 39.232C24.0363 38.4636 24.9287 37.504 25.6192 36.4037C25.7164 36.5818 25.8405 36.744 25.9869 36.8845C26.3122 37.0984 26.6781 37.2428 27.0617 37.3087C29.2395 37.6481 30.9931 35.5835 32.4921 33.8582C32.4921 34.933 32.7466 36.5168 33.5951 36.9976C36.1406 38.4118 39.2518 34.8198 41.6276 30.9733C41.9387 31.9632 42.6458 33.8016 42.8438 34.339C42.9289 34.9394 42.9289 35.5488 42.8438 36.1491C42.8438 36.1491 40.6094 36.1491 40.2417 37.2239C39.874 38.2987 41.9104 39.5431 43.3529 38.8078H43.5226C44.767 38.1855 44.8802 37.8461 45.1064 37.0825C45.8701 36.3754 45.6721 34.537 46.5489 33.9713C46.5309 35.6954 46.97 37.3934 47.8216 38.8926C49.6224 40.9652 52.1154 42.3122 54.8359 42.6826C61.3976 44.2099 61.7936 43.5028 64.4522 44.4927H64.6219C66.4037 45.0584 67.4502 45.8503 67.1674 47.0099C66.8846 48.1695 69.1755 47.3776 69.4018 46.6705C69.6367 46.1141 69.7708 45.5203 69.7978 44.917C69.9957 44.323 70.3068 43.6159 69.2604 42.9937ZM51.4419 29.05C52.2621 28.5975 52.856 28.5127 52.4035 29.3894C51.6227 30.2147 50.6516 30.8362 49.5752 31.1996C50.0659 30.3787 50.6979 29.651 51.4419 29.05ZM36.7063 28.3429C37.4699 27.9753 37.1871 28.3429 37.1871 28.3429L35.4053 29.842C35.7182 29.2317 36.1865 28.7147 36.7629 28.3429H36.7063ZM18.3787 25.656C18.8595 24.9772 19.001 26.1369 19.001 27.1268C18.807 28.3055 18.4943 29.4616 18.0676 30.5773C17.9688 28.9278 18.0925 27.2725 18.4353 25.656H18.3787ZM27.6274 30.8036C27.842 30.0898 28.2422 29.4456 28.787 28.9369C28.5334 30.1169 28.0426 31.2331 27.3445 32.2178C27.2031 33.0097 27.684 30.8319 27.684 30.8036H27.6274Z" fill="white"/>
    <path d="M2.90422 11.1751C2.61246 10.1375 2.65189 9.0348 3.01695 8.02074C3.38201 7.00668 4.0545 6.13188 4.94062 5.5184C4.35111 7.34733 4.03655 9.25369 4.00727 11.1751C3.97221 12.9498 4.03833 14.7251 4.20527 16.4923C4.20527 16.4923 4.54467 21.1025 5.08205 23.8742C5.08205 24.0722 5.08205 24.2702 5.08205 24.4682C5.7979 24.0724 6.37902 23.4716 6.75075 22.7429C7.74791 20.15 8.03118 17.337 7.57099 14.5973V14.3145C7.66285 14.3447 7.76194 14.3447 7.8538 14.3145C8.44775 14.1165 9.2114 13.2963 9.8902 14.0034C10.569 14.7105 10.8235 15.361 10.9367 17.3125C11.0498 19.2641 10.9367 20.9894 11.9549 21.3853C14.4721 22.4601 17.1307 18.557 17.1307 18.557C17.2255 18.8326 17.3746 19.0863 17.5692 19.3032C17.7639 19.5201 18 19.6958 18.2638 19.8197C18.5275 19.9437 18.8135 20.0134 19.1047 20.0249C19.3959 20.0363 19.6864 19.9892 19.959 19.8863C20.2176 19.8179 20.4653 19.7131 20.6944 19.5752C23.2399 19.9146 25.5874 17.8499 27.7087 15.2761C27.4824 16.662 26.9167 18.8681 28.6137 19.3207C29.4647 19.3726 30.3037 19.0997 30.9612 18.557C31.8946 17.7368 32.432 16.9449 33.3371 15.9832C33.1674 17.5105 33.337 18.8115 33.1956 20.3671L32.2623 21.2439C31.1988 22.3779 30.5336 23.8275 30.3673 25.3733C30.3673 25.3733 30.3673 25.7692 30.5936 25.8541C30.8198 25.9389 30.8764 25.8541 30.9047 25.5995C30.9882 24.9069 31.1992 24.2356 31.5269 23.6197C31.922 22.8391 32.4592 22.1389 33.1108 21.555C33.1108 22.2621 32.9411 23.3086 32.8279 24.3833C32.63 26.2783 31.5269 26.646 31.5269 26.646C31.5269 26.646 31.0744 26.9006 31.0178 27.24C30.9612 27.5794 31.0178 27.7773 31.5269 27.8056C32.0856 27.8784 32.6533 27.7827 33.1572 27.5307C33.6611 27.2788 34.0783 26.8821 34.3553 26.3915C35.3539 24.9968 35.825 23.2929 35.6845 21.5833C35.6845 20.9611 35.6845 20.3388 35.6845 19.6883L37.3533 18.1045C37.8907 19.2358 40.1816 19.5469 41.7937 18.8116C42.4494 18.5929 43.0156 18.1658 43.4059 17.5954C43.4581 17.9462 43.6077 18.2753 43.8377 18.5453C44.0677 18.8153 44.3688 19.0153 44.7069 19.1226C45.5807 19.2667 46.4762 19.2035 47.3211 18.9382C48.1661 18.6729 48.9369 18.213 49.5716 17.5954C49.5427 17.9719 49.5427 18.3501 49.5716 18.7267C49.5971 19.2256 49.7289 19.7134 49.9581 20.1572C50.1874 20.6011 50.5088 20.9909 50.9009 21.3005C52.2868 22.3752 54.4646 21.6964 56.2465 20.7914C56.932 20.4292 57.5933 20.023 58.2263 19.5752C58.6788 19.0944 58.2263 18.8115 57.8021 18.557C57.6636 18.4802 57.5079 18.4399 57.3495 18.4399C57.1912 18.4399 57.0355 18.4802 56.897 18.557C56.5293 18.8964 56.1334 19.2358 55.6526 19.6035L55.0303 20.0277C53.8141 20.5368 52.9373 20.254 52.6262 18.9812C52.3485 17.4191 52.3485 15.8201 52.6262 14.2579C54.8449 11.3916 56.7419 8.29011 58.2829 5.0093C58.9334 3.67998 60.0082 -0.109965 57.8021 0.00316794C57.1191 -0.0255329 56.442 0.141265 55.8505 0.483978C54.5212 1.16278 53.4182 2.69008 52.2868 5.77296C51.4508 7.95397 50.7795 10.1946 50.2787 12.4761C50.0174 13.5559 49.8284 14.652 49.7131 15.757C48.4969 17.1994 47.1676 18.2459 46.4888 17.1428C46.2732 16.9059 46.1212 16.6182 46.0471 16.3066C45.9729 15.995 45.9789 15.6696 46.0645 15.361C46.3822 13.5633 47.0448 11.8441 48.016 10.2983C49.1757 8.68613 49.5434 8.45987 49.1757 8.20532C48.7453 7.91058 48.2234 7.78009 47.7049 7.83763C47.0827 7.83763 47.0262 7.83763 46.6868 8.26188C46.3167 7.93975 45.883 7.69886 45.414 7.5548C44.2066 7.44987 42.994 7.68581 41.914 8.23579C40.834 8.78578 39.9301 9.62774 39.3048 10.666C38.0187 12.4768 37.2289 14.5927 37.0138 16.8034C36.7876 17.0863 36.0522 17.7085 35.826 17.9913C35.9957 15.7852 36.1937 13.9468 36.1937 13.9468L36.7876 12.0236C37.5513 9.56292 38.428 7.80934 37.6361 7.61135H37.2684C37.2684 7.61135 36.8442 7.61135 36.3633 7.61135H36.1654C35.5997 7.80934 35.0057 8.12046 34.9492 8.34673C34.5532 9.73261 33.6764 11.571 33.4502 12.9286C32.9561 13.9634 32.3076 14.9171 31.5269 15.757C30.2259 16.662 30.6784 14.7387 30.933 13.6074C31.1875 12.4761 32.3754 8.94067 32.6017 8.23359C32.8279 7.52651 32.3471 7.83763 32.3471 7.83763C31.4473 7.71235 30.5314 7.89155 29.7451 8.34673C28.3875 10.27 27.0865 14.0034 25.644 15.9832C25.0498 16.815 24.2086 17.4385 23.2399 17.7651C24.5757 16.5183 25.5524 14.936 26.0682 13.1832C26.4223 12.5373 26.6078 11.8126 26.6078 11.0761C26.6078 10.3395 26.4223 9.61485 26.0682 8.96896L25.8985 8.68613L25.7005 8.48815C24.2298 7.10227 20.9773 8.17703 19.1388 10.6942C18.1822 11.9118 17.5497 13.3519 17.3004 14.8802C17.159 15.2478 17.0459 15.5872 16.9327 15.9266C16.0842 17.1994 16.4519 17.058 15.4054 18.1045C14.6701 18.4722 14.4438 18.2742 14.3307 17.1711C14.2176 16.0681 14.4721 13.0983 13.5388 11.967C12.6054 10.8357 11.0498 11.967 11.0498 11.967C11.5306 11.373 12.0115 10.8074 12.464 10.1569C13.9913 8.06389 16.4236 3.67998 13.0862 2.15268C11.7337 1.60982 10.2353 1.54989 8.84373 1.98299C8.63923 1.89087 8.41751 1.84325 8.19323 1.84325C7.96894 1.84325 7.74718 1.89087 7.54268 1.98299C7.16583 2.05905 6.80846 2.21115 6.49237 2.42999C6.17628 2.64882 5.90813 2.92979 5.70428 3.25575C2.05574 5.34871 -0.885742 9.13867 0.245589 12.2498C0.754688 12.5044 3.10221 11.6559 2.90422 11.1751ZM57.095 2.49209C57.3213 2.15269 57.4344 2.09613 57.5192 2.12441C57.5192 2.69008 57.1798 3.36888 57.0384 3.93454C56.3971 6.11393 55.3931 8.16968 54.0687 10.0155C54.8481 7.42139 55.861 4.9033 57.095 2.49209ZM43.3776 10.4397C44.9049 9.25178 45.2726 9.44978 45.5837 9.70433C45.3729 10.0796 45.184 10.4668 45.018 10.8639C44.4989 12.0392 44.0917 13.2608 43.8019 14.5125C43.6322 14.6822 43.6321 15.0782 43.0665 15.6438C42.5008 16.2095 41.7937 16.8883 41.3412 16.2095C40.8887 15.5307 41.7655 11.6559 43.3211 10.4397H43.3776ZM21.4864 13.268C21.5672 12.915 21.6906 12.5731 21.854 12.2498C22.7874 10.4114 24.9369 8.99724 24.6823 10.4397C24.5636 11.8172 24.1384 13.1508 23.4379 14.3428C22.9396 15.3889 22.2704 16.3448 21.458 17.1711C20.8358 16.4358 21.0055 15.0499 21.4298 13.2397L21.4864 13.268ZM9.01342 3.59513C9.29889 3.53403 9.59539 3.54889 9.87332 3.63823C10.1513 3.72756 10.4009 3.88825 10.5973 4.10423C11.2035 4.92261 11.5307 5.91411 11.5307 6.93256C11.5307 7.95101 11.2035 8.94251 10.5973 9.76089C9.2114 11.8256 7.76895 12.9003 7.76895 13.4094C7.66722 10.093 8.08717 6.7812 9.01342 3.59513Z" fill="white"/>
</svg>
